<?xml version="1.0" encoding="UTF-8"?>
<!DOCTYPE svg PUBLIC "-//W3C//DTD SVG 1.1//EN" "http://www.w3.org/Graphics/SVG/1.1/DTD/svg11.dtd">
<!-- Creator: CorelDRAW -->
<svg xmlns="http://www.w3.org/2000/svg" xml:space="preserve" width="297mm" height="210mm" version="1.1" style="shape-rendering:geometricPrecision; text-rendering:geometricPrecision; image-rendering:optimizeQuality; fill-rule:evenodd; clip-rule:evenodd"
viewBox="0 0 29700 21000"
 xmlns:xlink="http://www.w3.org/1999/xlink"
 xmlns:xodm="http://www.corel.com/coreldraw/odm/2003">
 <defs>
  <style type="text/css">
   <![CDATA[
    .str0 {stroke:#7E7E7E;stroke-width:70.56;stroke-miterlimit:22.9256}
    .str1 {stroke:#454545;stroke-width:70.56;stroke-miterlimit:22.9256}
    .fil0 {fill:none}
    .fil1 {fill:#807E7E}
    .fil4 {fill:#FF9933}
    .fil2 {fill:#FFCC00}
    .fil3 {fill:#FFFF66}
   ]]>
  </style>
 </defs>
 <g id="Vrstva_x0020_1">
  <metadata id="CorelCorpID_0Corel-Layer"/>
  <rect class="fil0" x="16632.55" y="11026.78" width="3010.03" height="3010.03"/>
  <path class="fil1 str0" d="M17006.17 11925.72c418.8,465.29 765.59,781.05 1214.85,1171.57 -146.12,160.56 -277.23,289.95 -461.98,431.85 515,105.92 959.02,223.68 1450.37,424.24 -73.01,-542.95 -59.26,-1014.93 -41.58,-1522.39 -131.31,105.59 -265.29,214.76 -418.01,303.4 -460.3,-551.44 -718.43,-903.49 -935.03,-1521.39 -305.54,218.19 -572.31,450.22 -808.62,712.72z"/>
  <path class="fil2" d="M17017.02 11839.93c418.8,465.29 765.59,781.05 1214.85,1171.57 -146.12,160.56 -277.23,289.95 -461.98,431.85 515,105.92 959.02,223.68 1450.37,424.24 -73.01,-542.95 -59.26,-1014.93 -41.58,-1522.39 -131.31,105.59 -265.29,214.76 -418.01,303.4 -460.3,-551.44 -718.43,-903.49 -935.03,-1521.39 -305.54,218.19 -572.31,450.22 -808.62,712.72z"/>
  <path class="fil3" d="M17651.6 11267.35c120.47,222.32 431.06,644.76 652.53,834.91l21.94 17.61c-138.18,-241.37 -429.64,-772.36 -502.2,-988.14l-172.27 135.62z"/>
  <path class="fil4" d="M17042.3 11838.93c136.57,166.12 1083.25,1068.85 1224.05,1196.19l18.88 -24.71c-176.73,-155.42 -965.27,-961.81 -1141.29,-1277.98l-101.64 106.5z"/>
  <path class="fil4" d="M17804.37 13444.38c546.86,123.31 1071.39,277.2 1400.09,416.56l2.58 -37.92c-511.98,-233.17 -703.47,-309.07 -1270.87,-497.93l-131.8 119.29z"/>
  <path class="fil0 str1" d="M17025.72 11842c418.8,465.29 765.59,781.05 1214.85,1171.57 -146.12,160.56 -277.23,289.95 -461.98,431.85 515,105.92 959.02,223.68 1450.37,424.24 -73.01,-542.95 -59.26,-1014.93 -41.58,-1522.39 -131.31,105.59 -265.29,214.76 -418.01,303.4 -460.3,-551.44 -718.43,-903.49 -935.03,-1521.39 -305.54,218.19 -572.31,450.22 -808.62,712.72z"/>
 </g>
</svg>
