<?xml version="1.0" encoding="UTF-8"?>
<!DOCTYPE svg PUBLIC "-//W3C//DTD SVG 1.1//EN" "http://www.w3.org/Graphics/SVG/1.1/DTD/svg11.dtd">
<!-- Creator: CorelDRAW -->
<svg xmlns="http://www.w3.org/2000/svg" xml:space="preserve" width="297mm" height="210mm" version="1.1" style="shape-rendering:geometricPrecision; text-rendering:geometricPrecision; image-rendering:optimizeQuality; fill-rule:evenodd; clip-rule:evenodd"
viewBox="0 0 29700 21000"
 xmlns:xlink="http://www.w3.org/1999/xlink"
 xmlns:xodm="http://www.corel.com/coreldraw/odm/2003">
 <defs>
  <style type="text/css">
   <![CDATA[
    .str1 {stroke:#454545;stroke-width:66.67;stroke-miterlimit:22.9256}
    .str0 {stroke:#7E7E7E;stroke-width:66.67;stroke-miterlimit:22.9256}
    .fil0 {fill:none}
    .fil4 {fill:#00F719}
    .fil3 {fill:#03590C}
    .fil2 {fill:#51B83F}
    .fil1 {fill:#807E7E}
   ]]>
  </style>
 </defs>
 <g id="Vrstva_x0020_1">
  <metadata id="CorelCorpID_0Corel-Layer"/>
  <rect class="fil0" x="16830.73" y="11054.42" width="3010.03" height="3010.03"/>
  <g id="_105553246318816">
   <path class="fil1 str0" d="M16940.39 12361.21c588.73,-57.47 1031.9,-56.57 1594.2,-42.47 0.47,-205.13 -8.47,-378.96 -46.84,-595.71 426.69,254.49 811.42,455.46 1281.96,628.87 -397.1,332.1 -688.44,670.02 -999.66,1035.18 -24.25,-157.36 -48.08,-318.91 -98.07,-478.1 -672.59,91.08 -1077.07,172.02 -1622.09,464.83 -73.96,-346.97 -112.06,-678.87 -109.5,-1012.6z"/>
   <path class="fil2" d="M16896.51 12289.95c588.72,-57.47 1031.89,-56.57 1594.19,-42.47 0.47,-205.13 -8.47,-378.96 -46.83,-595.71 426.68,254.49 811.42,455.46 1281.95,628.87 -397.09,332.1 -688.43,670.02 -999.65,1035.18 -24.25,-157.36 -48.08,-318.91 -98.07,-478.1 -672.6,91.08 -1077.08,172.02 -1622.09,464.83 -73.97,-346.97 -112.07,-678.87 -109.5,-1012.6z"/>
   <path class="fil3" d="M16953.52 13050.08c719.16,-235.21 1187.49,-333.42 1682.87,-317.21l30.42 97.51c-603.29,92.05 -1039.29,165.55 -1659.16,467.89l-54.13 -248.19z"/>
   <path class="fil4" d="M16913.5 12306.76c201.15,-28.77 1436.93,-54.73 1616.31,-53.76l-2.59 29.27c-222.34,-4.3 -1286.4,55.31 -1610.74,163.57l-2.98 -139.08z"/>
   <path class="fil3" d="M18691.06 13087.4c368.3,-384.95 800.86,-730.45 967.82,-829.38l57.31 25.21c-394.15,369.6 -651.33,609.02 -989.97,1026.97l-35.16 -222.8z"/>
   <path class="fil0 str1" d="M16903.89 12294.05c588.73,-57.47 1031.9,-56.56 1594.2,-42.46 0.47,-205.14 -8.47,-378.97 -46.84,-595.72 426.69,254.49 811.42,455.47 1281.96,628.88 -397.1,332.09 -688.44,670.01 -999.66,1035.18 -24.25,-157.36 -48.08,-318.92 -98.07,-478.11 -672.59,91.09 -1077.07,172.02 -1622.09,464.83 -73.96,-346.97 -112.06,-678.87 -109.5,-1012.6z"/>
  </g>
 </g>
</svg>
