<?xml version="1.0" encoding="UTF-8"?>
<!DOCTYPE svg PUBLIC "-//W3C//DTD SVG 1.1//EN" "http://www.w3.org/Graphics/SVG/1.1/DTD/svg11.dtd">
<!-- Creator: CorelDRAW -->
<svg xmlns="http://www.w3.org/2000/svg" xml:space="preserve" width="297mm" height="210mm" version="1.1" style="shape-rendering:geometricPrecision; text-rendering:geometricPrecision; image-rendering:optimizeQuality; fill-rule:evenodd; clip-rule:evenodd"
viewBox="0 0 29700 21000"
 xmlns:xlink="http://www.w3.org/1999/xlink"
 xmlns:xodm="http://www.corel.com/coreldraw/odm/2003">
 <defs>
  <style type="text/css">
   <![CDATA[
    .str1 {stroke:#454545;stroke-width:70.56;stroke-miterlimit:22.9256}
    .str0 {stroke:#7E7E7E;stroke-width:70.56;stroke-miterlimit:22.9256}
    .fil4 {fill:none}
    .fil3 {fill:#00F719}
    .fil2 {fill:#03590C}
    .fil1 {fill:#51B83F}
    .fil0 {fill:#807E7E}
   ]]>
  </style>
 </defs>
 <g id="Vrstva_x0020_1">
  <metadata id="CorelCorpID_0Corel-Layer"/>
  <g id="_105553248203360">
   <path class="fil0 str0" d="M17046.21 13156.94c418.8,-465.29 765.59,-781.05 1214.85,-1171.57 -146.12,-160.56 -277.23,-289.95 -461.98,-431.85 515,-105.92 959.02,-223.68 1450.37,-424.24 -73.01,542.95 -59.26,1014.93 -41.58,1522.39 -131.31,-105.59 -265.29,-214.76 -418.01,-303.4 -460.3,551.44 -718.43,903.49 -935.03,1521.39 -305.54,-218.19 -572.31,-450.22 -808.62,-712.72z"/>
   <path class="fil1" d="M17017.06 13052.73c418.8,-465.29 765.59,-781.05 1214.85,-1171.57 -146.12,-160.56 -277.23,-289.95 -461.98,-431.85 515,-105.92 959.02,-223.68 1450.37,-424.24 -73.01,542.95 -59.26,1014.93 -41.58,1522.39 -131.31,-105.59 -265.29,-214.76 -418.01,-303.4 -460.3,551.44 -718.43,903.49 -935.03,1521.39 -305.54,-218.19 -572.31,-450.22 -808.62,-712.72z"/>
   <path class="fil2" d="M17604.4 13605.73c393.74,-697.26 689.41,-1108.4 1087.92,-1449.48l93.39 54.44c-405.48,502.7 -693.54,871.45 -961.8,1550.24l-219.51 -155.2z"/>
   <path class="fil3" d="M17042.34 13053.73c136.57,-166.12 1083.25,-1068.85 1224.05,-1196.19l18.88 24.71c-176.73,155.42 -965.27,961.81 -1141.29,1277.98l-101.64 -106.5z"/>
   <path class="fil2" d="M18988.18 12394.12c12.78,-563.67 103.92,-1142.43 163.68,-1338.92l62.76 -21.23c-43.93,570.14 -73.83,940.79 -39.87,1509.06l-186.57 -148.91z"/>
   <path class="fil4 str1" d="M17025.76 13050.66c418.8,-465.29 765.59,-781.05 1214.85,-1171.57 -146.12,-160.56 -277.23,-289.95 -461.98,-431.85 515,-105.92 959.02,-223.68 1450.37,-424.24 -73.01,542.95 -59.26,1014.93 -41.58,1522.39 -131.31,-105.59 -265.29,-214.76 -418.01,-303.4 -460.3,551.44 -718.43,903.49 -935.03,1521.39 -305.54,-218.19 -572.31,-450.22 -808.62,-712.72z"/>
  </g>
  <rect class="fil4" x="16648.24" y="10936.78" width="3010.03" height="3010.03"/>
 </g>
</svg>
